<svg xmlns="http://www.w3.org/2000/svg" width="70" height="70" viewBox="0 0 70 70"><path d="M64.3529 46.3883L60.521 44.9041C59.9731 46.3175 59.3088 47.683 58.5349 48.9865L62.0681 51.0853C62.9586 49.5856 63.7228 48.0146 64.3529 46.3883ZM51.1152 62.079L49.0036 58.553C47.7033 59.3319 46.3405 60.0012 44.9292 60.5541L46.4277 64.3812C48.0511 63.7445 49.619 62.9746 51.1152 62.079ZM59.0406 55.3386L55.9009 52.6869C54.9218 53.8456 53.8493 54.9221 52.6944 55.9057L55.3568 59.0359C56.6839 57.9064 57.916 56.6698 59.0406 55.3386ZM64.3235 23.5375C63.6889 21.9136 62.9208 20.3451 62.0271 18.8481L58.4991 20.9553C59.276 22.2566 59.9435 23.6202 60.4949 25.0319L64.3235 23.5375ZM55.2969 10.9151L52.6415 14.0521C53.7992 15.0323 54.8743 16.106 55.8561 17.2623L58.9899 14.6034C57.8619 13.275 56.6267 12.0415 55.2969 10.9151ZM46.3545 5.59211L44.8656 9.42297C46.2783 9.97264 47.6428 10.6386 48.9453 11.4139L51.0485 7.8827C49.5499 6.9906 47.9798 6.22444 46.3545 5.59211ZM23.5895 5.55957C21.9504 6.19188 20.367 6.96019 18.856 7.85645L20.9533 11.3909C22.2666 10.6117 23.6429 9.94378 25.0677 9.39412L23.5895 5.55957ZM17.226 14.0452L14.5723 10.9071C13.2319 12.0413 11.9878 13.2845 10.8526 14.6242L13.988 17.2806C14.9761 16.1145 16.0591 15.0323 17.226 14.0452ZM5.49707 23.638L9.33066 25.119C9.88163 23.6946 10.5506 22.3187 11.3306 21.0056L7.79777 18.9062C6.9004 20.4166 6.13082 21.9994 5.49707 23.638ZM14.644 59.155L17.2885 56.0093C16.1183 55.0251 15.0317 53.9457 14.0398 52.782L10.9115 55.4477C12.0512 56.7844 13.2996 58.0243 14.644 59.155ZM25.1482 60.6385C23.7209 60.0931 22.3417 59.4291 21.0253 58.6533L18.9393 62.1944C20.4538 63.0865 22.0404 63.8503 23.6823 64.4778L25.1482 60.6385ZM11.3706 49.0629C10.5865 47.7515 9.91332 46.3768 9.35828 44.9532L5.52906 46.4454C6.16754 48.0828 6.94179 49.664 7.84371 51.1724L11.3706 49.0629Z"></path><rect x="29" width="12" height="11" fill="#8FBEF5"></rect><rect x="58" y="29" width="12" height="11" fill="#8FBEF5"></rect><rect y="29" width="12" height="11" fill="#8FBEF5"></rect><rect x="29" y="59" width="12" height="11" fill="#8FBEF5"></rect></svg>