<svg xmlns="http://www.w3.org/2000/svg" width="70" height="70" viewBox="0 0 70 70"><path d="M27.1432 57.7834L21.1707 57.8162C24.3661 59.2642 26.5889 61.1645 27.7981 63.4905C28.5755 64.9858 28.729 66.3076 28.7304 67.1132L37.1813 67.1174C37.0198 64.6878 35.9943 62.4288 34.2525 60.6956C32.3503 58.803 29.8283 57.7641 27.1432 57.7834ZM2.92324 32.8344L2.91162 41.3931C3.71348 41.3931 5.02775 41.5449 6.51484 42.3203C8.83264 43.5288 10.7274 45.7559 12.1728 48.9612L12.2222 42.8783C12.244 40.1935 11.215 37.6659 9.32455 35.7608C7.59752 34.0204 5.34549 32.9958 2.92324 32.8344Z" fill="#F5BEBE"></path><path d="M12.1414 52.8312C10.7623 48.2083 8.62963 45.0097 5.96977 43.5788C4.6816 42.8859 3.54984 42.7621 2.90986 42.7613L2.87842 66.1298L12.1084 56.8931L12.1414 52.8312ZM17.286 57.8376L13.0745 57.8607L3.84119 67.1008L27.3623 67.1126C27.3597 66.467 27.2334 65.3291 26.5395 64.035C25.1051 61.3596 21.9061 59.218 17.286 57.8376ZM27.1063 37.8548C25.7273 33.2322 23.5945 30.0335 20.9347 28.6027C19.6464 27.9097 18.5149 27.7861 17.8748 27.7853L17.8434 51.1541L27.0734 41.9173L27.1063 37.8548Z"></path><path d="M27.1874 27.9024C27.2092 25.2177 26.1802 22.69 24.2897 20.785C22.5627 19.0446 20.3107 18.0199 17.8886 17.8584L17.877 26.4171C18.6788 26.4171 19.9932 26.569 21.48 27.3442C23.7977 28.5527 25.6926 30.7797 27.138 33.9849L27.1874 27.9024ZM32.0237 42.8629L28.0397 42.8848L18.8064 52.1249L42.3035 52.1365C42.2796 51.4875 42.1165 50.3554 41.3933 49.0681C39.8878 46.3889 36.6487 44.2446 32.0237 42.8629Z"></path><path d="M42.1085 42.8075L35.9161 42.8415C39.1209 44.2869 41.3765 46.1821 42.6415 48.5006C43.4631 50.0062 43.65 51.3361 43.6723 52.1373L52.1465 52.1415C51.985 49.712 50.9595 47.4528 49.2176 45.7196C47.3153 43.827 44.7878 42.7893 42.1085 42.8075ZM35.8999 13.6268C34.6115 12.9337 33.48 12.8101 32.84 12.8094L32.8086 36.1781L42.0386 26.9414L42.0716 22.8792C40.6923 18.2565 38.5598 15.0575 35.8999 13.6268Z" fill="#F5BEBE"></path><path d="M42.1522 12.9264C42.1741 10.2416 41.145 7.71396 39.2546 5.80893C37.5276 4.0685 35.2755 3.04379 32.8534 2.88232L32.8418 11.4412C33.6437 11.4412 34.9579 11.5929 36.445 12.3683C38.7627 13.5767 40.6576 15.8038 42.1028 19.0091L42.1522 12.9264ZM47.1243 27.886L43.0046 27.9086L33.7713 37.1487L57.2825 37.1604C57.2712 36.513 57.1296 35.378 56.4248 34.0876C54.9619 31.4098 51.7464 29.2669 47.1243 27.886Z" fill="#F5BEBE"></path><path d="M57.1298 27.8314L51.0124 27.8649C54.2117 29.312 56.4476 31.2106 57.6793 33.5342C58.4735 35.0326 58.6408 36.3573 58.6509 37.1613L67.1115 37.1656C66.95 34.7359 65.9245 32.4769 64.1826 30.7437C62.2938 28.8644 59.791 27.8315 57.1298 27.8315V27.8314ZM47.189 19.8186C47.189 21.4491 48.5143 22.7756 50.1435 22.7756C51.7726 22.7756 53.0979 21.4491 53.0979 19.8186C53.0979 18.188 51.7726 16.8613 50.1435 16.8613C48.5143 16.8613 47.189 18.1879 47.189 19.8186Z"></path><path d="M59.3815 14.9502C60.4745 14.9502 61.3606 14.0641 61.3606 12.9711C61.3606 11.878 60.4745 10.9919 59.3815 10.9919C58.2884 10.9919 57.4023 11.878 57.4023 12.9711C57.4023 14.0641 58.2884 14.9502 59.3815 14.9502Z"></path></svg>