<svg xmlns="http://www.w3.org/2000/svg" width="70" height="70" viewBox="0 0 70 70"><path d="M58.3331 63C58.3331 50.1144 47.8856 39.6669 35 39.6669C22.1144 39.6669 11.6669 50.1144 11.6669 63H7C7 47.537 19.537 35 35 35C50.463 35 63 47.537 63 63H58.3331ZM39.6669 7C39.6669 19.8856 50.1144 30.3338 63 30.3338V35C47.537 35 35 22.463 35 7H39.6669Z"></path><path d="M56 21C59.866 21 63 17.866 63 14C63 10.134 59.866 7 56 7C52.134 7 49 10.134 49 14C49 17.866 52.134 21 56 21Z"></path><path d="M35.0001 63.0007C40.1546 63.0007 44.3332 58.8221 44.3332 53.6676C44.3332 48.513 40.1546 44.3345 35.0001 44.3345C29.8456 44.3345 25.667 48.513 25.667 53.6676C25.667 58.8221 29.8456 63.0007 35.0001 63.0007Z" fill="#F5BEBE"></path><path d="M18.6669 30.3338C25.1104 30.3338 30.3338 25.1104 30.3338 18.6669C30.3338 12.2234 25.1104 7 18.6669 7C12.2234 7 7 12.2234 7 18.6669C7 25.1104 12.2234 30.3338 18.6669 30.3338Z" fill="#F5BEBE"></path></svg>